Wearing rayon suits, Speedo trunks, hair gel and cologne, wealthy Yemenite-American brothers Steve (Will Ferrell) and Doug Butabi (Chris Kattan) enjoy frequenting nightclubs, where they bob their heads in unison to dance music (specifically Haddaway's hit song "What Is Love") and fail miserably at picking up women. Their dream is to party at the Roxbury, a fabled nightclub where they are continually denied entrance by a hulking bouncer (Michael Clarke Duncan).



Will Ferrell as Steve Butabi
Chris Kattan as Doug Butabi
Loni Anderson as Barbara Butabi
Dan Hedaya as Kamehl Butabi
Molly Shannon as Emily Sanderson
Dwayne Hickman as Fred Sanderson
 
http://www.imdb.com/title/tt0120770/
 
http://img534.imageshack.us/img534/675/76427847.png 
http://img709.imageshack.us/img709/7272/82933135.png 
http://img193.imageshack.us/img193/3926/51362723.png
 
http://www.videodetective.com/movie_trailer/A_NIGHT_AT_THE_ROXBURY/trailer/P00007968.htm

General
Complete name : A Night At The Roxbury -1998 (Dvdrip)\NIGHT_AT_THE_ROXBURY.avi
Format : AVI
Format/Info : Audio Video Interleave
File size : 1 000 MiB
Duration : 1h 18mn
Overall bit rate : 1 779 Kbps
Writing application : VirtualDubMod 1.5.4.1 (build 2178/release)
Writing library : VirtualDubMod build 2178/release

Video
ID : 0
Format : MPEG-4 Visual
Format profile : Advanced Simple@L5
Format settings, BVOP : Yes
Format settings, QPel : No
Format settings, GMC : No warppoints
Format settings, Matrix : Default (H.263)
Muxing mode : Packed bitstream
Codec ID : XVID
Codec ID/Hint : XviD
Duration : 1h 18mn
Bit rate : 1 324 Kbps
Width : 704 pixels
Height : 400 pixels
Display aspect ratio : 16:9
Frame rate : 25.000 fps
Color space : YUV
Chroma subsampling : 4:2:0
Bit depth : 8 bits
Scan type : Progressive
Bits/(Pixel*Frame) : 0.188
Stream size : 744 MiB (74%)
Writing library : XviD 1.2.1 (UTC 2008-12-04)

Audio
ID : 1
Format : AC-3
Format/Info : Audio Coding 3
Mode extension : CM (complete main)
Codec ID : 2000
Duration : 1h 18mn
Bit rate mode : Constant
Bit rate : 448 Kbps
Channel(s) : 6 channels
Channel positions : Front: L C R, Side: L R, LFE
Sampling rate : 48.0 KHz
Bit depth : 16 bits
Stream size : 252 MiB (25%)
Alignment : Split accross interleaves
Interleave, duration : 80 ms (2.00 video frames)
Interleave, preload duration : 500 ms
Language : English

All thanks to rojo :)
 
http://www.metacafe.com/watch/4200423/a_night_at_the_roxbury_movie_trailer/